<?xml version="1.0" encoding="UTF-8" standalone="no"?>
<!DOCTYPE svg PUBLIC "-//W3C//DTD SVG 1.1//EN" "http://www.w3.org/Graphics/SVG/1.1/DTD/svg11.dtd">
<svg width="100%" height="100%" viewBox="0 0 73 72" version="1.1" xmlns="http://www.w3.org/2000/svg" xmlns:xlink="http://www.w3.org/1999/xlink" xml:space="preserve" xmlns:serif="http://www.serif.com/" style="fill-rule:evenodd;clip-rule:evenodd;stroke-linecap:round;stroke-linejoin:round;stroke-miterlimit:1.5;">
    <g transform="matrix(0.194966,0.170581,-0.170581,0.194966,-34.3141,-135.598)">
        <g transform="matrix(0.692167,-0.721737,0.721737,0.692167,-36.731,569.815)">
            <path d="M531.318,424.829C486.741,286.509 563.501,199.643 601.292,182.11C653.798,183.253 712.978,206.289 737.797,226.81C757.816,251.21 778.904,319.188 776.601,364.908C762.098,388.403 673.81,478.476 531.318,424.829Z" style="fill:none;stroke:rgb(91,42,0);stroke-width:19.3px;"/>
        </g>
        <path d="M510.893,262.989C549.728,292.702 728.024,287.034 764.104,262.195" style="fill:none;stroke:rgb(91,42,0);stroke-width:19.3px;"/>
        <path d="M587.488,449.554C609.743,440.629 665.656,440.079 687.463,449.813" style="fill:none;stroke:rgb(91,42,0);stroke-width:19.3px;"/>
        <g transform="matrix(0.940468,0,0,1.00968,31.193,-2.61932)">
            <path d="M524.944,270.65C517.853,331.359 550.001,407.479 597.997,445.819" style="fill:none;stroke:rgb(91,42,0);stroke-width:19.78px;"/>
        </g>
        <path d="M571.98,280.138C567.72,328.042 582.913,390.514 607.491,444.715" style="fill:none;stroke:rgb(91,42,0);stroke-width:19.3px;"/>
        <g transform="matrix(1,0,0,1,-26.8684,-3.87068)">
            <path d="M573.045,279.926C570.239,312.77 577.087,383.029 625.191,450.12" style="fill:none;stroke:rgb(91,42,0);stroke-width:19.3px;"/>
        </g>
        <path d="M602.893,283.12C602.346,349.334 618.954,445.65 620.762,442.686" style="fill:none;stroke:rgb(91,42,0);stroke-width:19.3px;"/>
        <g transform="matrix(-0.940468,0,0,1.00968,1241.65,-3.61159)">
            <path d="M524.944,270.65C517.853,331.359 550.001,407.479 597.997,445.819" style="fill:none;stroke:rgb(91,42,0);stroke-width:19.78px;"/>
        </g>
        <g transform="matrix(-1,0,0,1,1272.84,-0.992266)">
            <path d="M571.98,280.138C567.72,328.042 582.913,390.514 607.491,444.715" style="fill:none;stroke:rgb(91,42,0);stroke-width:19.3px;"/>
        </g>
        <g transform="matrix(-1,0,0,1,1299.71,-4.86295)">
            <path d="M573.045,279.926C570.239,312.77 577.087,383.029 625.191,450.12" style="fill:none;stroke:rgb(91,42,0);stroke-width:19.3px;"/>
        </g>
        <g transform="matrix(-1,0,0,1,1272.84,-0.992266)">
            <path d="M602.893,283.12C602.346,349.334 618.954,445.65 620.762,442.686" style="fill:none;stroke:rgb(91,42,0);stroke-width:19.3px;"/>
        </g>
        <path d="M637.498,283.12C637.498,326.28 638.377,442.686 637.475,442.686" style="fill:none;stroke:rgb(91,42,0);stroke-width:19.3px;"/>
    </g>
</svg>
