<?xml version="1.0" encoding="UTF-8" standalone="no"?>
<!DOCTYPE svg PUBLIC "-//W3C//DTD SVG 1.1//EN" "http://www.w3.org/Graphics/SVG/1.1/DTD/svg11.dtd">
<svg width="100%" height="100%" viewBox="0 0 752 73" version="1.1" xmlns="http://www.w3.org/2000/svg" xmlns:xlink="http://www.w3.org/1999/xlink" xml:space="preserve" xmlns:serif="http://www.serif.com/" style="fill-rule:evenodd;clip-rule:evenodd;stroke-linecap:round;stroke-linejoin:round;stroke-miterlimit:1.5;">
    <g transform="matrix(1,0,0,1,0,-36.476)">
        <g transform="matrix(0.194966,0.170581,-0.170581,0.194966,228.67,-98.6708)">
            <g transform="matrix(0.692167,-0.721737,0.721737,0.692167,-36.731,569.815)">
                <path d="M531.318,424.829C486.741,286.509 563.501,199.643 601.292,182.11C653.798,183.253 712.978,206.289 737.797,226.81C757.816,251.21 778.904,319.188 776.601,364.908C762.098,388.403 673.81,478.476 531.318,424.829Z" style="fill:none;stroke:rgb(91,42,0);stroke-width:19.3px;"/>
            </g>
            <path d="M510.893,262.989C549.728,292.702 728.024,287.034 764.104,262.195" style="fill:none;stroke:rgb(91,42,0);stroke-width:19.3px;"/>
            <path d="M587.488,449.554C609.743,440.629 665.656,440.079 687.463,449.813" style="fill:none;stroke:rgb(91,42,0);stroke-width:19.3px;"/>
            <g transform="matrix(0.940468,0,0,1.00968,31.193,-2.61932)">
                <path d="M524.944,270.65C517.853,331.359 550.001,407.479 597.997,445.819" style="fill:none;stroke:rgb(91,42,0);stroke-width:19.78px;"/>
            </g>
            <path d="M571.98,280.138C567.72,328.042 582.913,390.514 607.491,444.715" style="fill:none;stroke:rgb(91,42,0);stroke-width:19.3px;"/>
            <g transform="matrix(1,0,0,1,-26.8684,-3.87068)">
                <path d="M573.045,279.926C570.239,312.77 577.087,383.029 625.191,450.12" style="fill:none;stroke:rgb(91,42,0);stroke-width:19.3px;"/>
            </g>
            <path d="M602.893,283.12C602.346,349.334 618.954,445.65 620.762,442.686" style="fill:none;stroke:rgb(91,42,0);stroke-width:19.3px;"/>
            <g transform="matrix(-0.940468,0,0,1.00968,1241.65,-3.61159)">
                <path d="M524.944,270.65C517.853,331.359 550.001,407.479 597.997,445.819" style="fill:none;stroke:rgb(91,42,0);stroke-width:19.78px;"/>
            </g>
            <g transform="matrix(-1,0,0,1,1272.84,-0.992266)">
                <path d="M571.98,280.138C567.72,328.042 582.913,390.514 607.491,444.715" style="fill:none;stroke:rgb(91,42,0);stroke-width:19.3px;"/>
            </g>
            <g transform="matrix(-1,0,0,1,1299.71,-4.86295)">
                <path d="M573.045,279.926C570.239,312.77 577.087,383.029 625.191,450.12" style="fill:none;stroke:rgb(91,42,0);stroke-width:19.3px;"/>
            </g>
            <g transform="matrix(-1,0,0,1,1272.84,-0.992266)">
                <path d="M602.893,283.12C602.346,349.334 618.954,445.65 620.762,442.686" style="fill:none;stroke:rgb(91,42,0);stroke-width:19.3px;"/>
            </g>
            <path d="M637.498,283.12C637.498,326.28 638.377,442.686 637.475,442.686" style="fill:none;stroke:rgb(91,42,0);stroke-width:19.3px;"/>
        </g>
        <g>
            <g transform="matrix(0.645474,0,0,0.645474,-657.167,-7.80338)">
                <g transform="matrix(0.139576,0,0,0.137183,886.009,9.20024)">
                    <path d="M1029.74,844.126C1029.74,676.493 1165.83,540.395 1333.47,540.395C1501.1,540.395 1637.2,676.493 1637.2,844.126" style="fill:none;stroke:rgb(91,42,0);stroke-width:167.93px;"/>
                </g>
                <path d="M1029.74,125L1029.74,166.667" style="fill:none;stroke:rgb(91,42,0);stroke-width:23.24px;"/>
                <g transform="matrix(1,0,0,1,84.7868,0)">
                    <path d="M1029.74,125L1029.74,166.667" style="fill:none;stroke:rgb(91,42,0);stroke-width:23.24px;"/>
                </g>
            </g>
            <g transform="matrix(3.95239e-17,0.645474,-0.645474,3.95239e-17,635.711,-618.681)">
                <g transform="matrix(0.139576,0,0,0.137183,886.009,9.20024)">
                    <path d="M1029.74,844.126C1029.74,676.493 1165.83,540.395 1333.47,540.395C1501.1,540.395 1637.2,676.493 1637.2,844.126" style="fill:none;stroke:rgb(91,42,0);stroke-width:167.93px;"/>
                </g>
                <path d="M1029.74,125L1029.74,166.667" style="fill:none;stroke:rgb(91,42,0);stroke-width:23.24px;"/>
                <g transform="matrix(1,0,0,1,84.7868,0)">
                    <path d="M1029.74,125L1029.74,166.667" style="fill:none;stroke:rgb(91,42,0);stroke-width:23.24px;"/>
                </g>
            </g>
            <g transform="matrix(0.645474,0,0,0.645474,-616.063,-7.80338)">
                <path d="M1772.64,83.333L1772.64,168.12" style="fill:none;stroke:rgb(91,42,0);stroke-width:23.24px;"/>
            </g>
            <g transform="matrix(0.645474,0,0,0.645474,-606.684,-7.33428)">
                <g transform="matrix(0.139576,0,0,0.137183,1482.87,8.47348)">
                    <path d="M1029.74,844.126C1029.74,676.493 1165.83,540.395 1333.47,540.395C1501.1,540.395 1637.2,676.493 1637.2,844.126" style="fill:none;stroke:rgb(91,42,0);stroke-width:167.93px;"/>
                </g>
                <g transform="matrix(0.139576,0,0,-0.137183,1482.87,241.527)">
                    <path d="M1029.74,844.126C1029.74,676.493 1165.83,540.395 1333.47,540.395C1501.1,540.395 1637.2,676.493 1637.2,844.126" style="fill:none;stroke:rgb(91,42,0);stroke-width:167.93px;"/>
                </g>
            </g>
            <g transform="matrix(0.645474,0,0,-0.645474,-572.991,153.565)">
                <g transform="matrix(0.139576,0,0,0.137183,886.009,9.20024)">
                    <path d="M1029.74,844.126C1029.74,676.493 1165.83,540.395 1333.47,540.395C1501.1,540.395 1637.2,676.493 1637.2,844.126" style="fill:none;stroke:rgb(91,42,0);stroke-width:167.93px;"/>
                </g>
                <path d="M1029.74,125L1029.74,166.667" style="fill:none;stroke:rgb(91,42,0);stroke-width:23.24px;"/>
                <g transform="matrix(1,0,0,1,84.7868,0)">
                    <path d="M1029.74,125L1029.74,166.667" style="fill:none;stroke:rgb(91,42,0);stroke-width:23.24px;"/>
                </g>
            </g>
            <g transform="matrix(0.645474,0,0,0.645474,-586.222,-7.33428)">
                <g transform="matrix(8.54655e-18,-0.139576,0.137183,8.40004e-18,1405.27,311.12)">
                    <path d="M1029.74,844.126C1029.74,676.493 1165.83,540.395 1333.47,540.395C1501.1,540.395 1637.2,676.493 1637.2,844.126" style="fill:none;stroke:rgb(91,42,0);stroke-width:167.93px;"/>
                </g>
                <g transform="matrix(6.12323e-17,-1,0.774424,4.74198e-17,1424.27,1197.13)">
                    <path d="M1029.74,125L1029.74,166.667" style="fill:none;stroke:rgb(91,42,0);stroke-width:25.98px;"/>
                </g>
                <g transform="matrix(6.12323e-17,-1,0.774424,4.74198e-17,1424.27,1112.34)">
                    <path d="M1029.74,125L1029.74,166.667" style="fill:none;stroke:rgb(91,42,0);stroke-width:25.98px;"/>
                </g>
            </g>
            <g transform="matrix(5.51658e-18,-0.0900926,0.0885481,5.42201e-18,562.087,193.485)">
                <path d="M1029.74,844.126C1029.74,676.493 1165.83,540.395 1333.47,540.395C1501.1,540.395 1637.2,676.493 1637.2,844.126" style="fill:none;stroke:rgb(91,42,0);stroke-width:167.93px;"/>
            </g>
            <g transform="matrix(3.95239e-17,-0.645474,0.50993,3.12242e-17,573.091,765.381)">
                <path d="M1029.74,125L1029.74,166.667" style="fill:none;stroke:rgb(91,42,0);stroke-width:25.79px;"/>
            </g>
            <g transform="matrix(3.95239e-17,-0.645474,0.50993,3.12242e-17,573.091,710.653)">
                <path d="M1029.74,125L1029.74,166.667" style="fill:none;stroke:rgb(91,42,0);stroke-width:25.79px;"/>
            </g>
            <g transform="matrix(3.95239e-17,-0.645474,0.767372,4.6988e-17,519.561,738.017)">
                <path d="M1029.74,125L1029.74,166.667" style="fill:none;stroke:rgb(91,42,0);stroke-width:21.16px;"/>
            </g>
            <g transform="matrix(1,0,0,1,-44.7321,6.38933)">
                <g transform="matrix(2.75829e-18,-0.0450463,0.044274,2.711e-18,710.623,113.346)">
                    <path d="M1029.74,844.126C1029.74,676.493 1165.83,540.395 1333.47,540.395C1501.1,540.395 1637.2,676.493 1637.2,844.126" style="fill:none;stroke:rgb(91,42,0);stroke-width:335.86px;"/>
                </g>
                <g transform="matrix(-2.75829e-18,-0.0450463,-0.044274,2.711e-18,812.264,140.71)">
                    <path d="M1029.74,844.126C1029.74,676.493 1165.83,540.395 1333.47,540.395C1501.1,540.395 1637.2,676.493 1637.2,844.126" style="fill:none;stroke:rgb(91,42,0);stroke-width:335.86px;"/>
                </g>
                <g transform="matrix(3.95239e-17,-0.645474,0.93026,5.6962e-17,619.848,758.992)">
                    <path d="M1029.74,125L1029.74,166.667" style="fill:none;stroke:rgb(91,42,0);stroke-width:18.74px;"/>
                </g>
                <g transform="matrix(3.95239e-17,-0.645474,0.806842,4.94049e-17,647.141,704.264)">
                    <path d="M1029.74,125L1029.74,166.667" style="fill:none;stroke:rgb(91,42,0);stroke-width:20.53px;"/>
                </g>
                <g transform="matrix(3.95239e-17,-0.645474,0.645474,3.95239e-17,667.312,731.628)">
                    <path d="M1029.74,125L1029.74,166.667" style="fill:none;stroke:rgb(91,42,0);stroke-width:23.24px;"/>
                </g>
            </g>
            <g transform="matrix(0.645474,0,0,0.645474,-684.335,-7.80338)">
                <g transform="matrix(1,0,0,1,-401.211,0)">
                    <path d="M1772.64,83.333L1772.64,168.12" style="fill:none;stroke:rgb(91,42,0);stroke-width:23.24px;"/>
                </g>
                <g transform="matrix(6.12323e-17,-1,1,6.12323e-17,1245.71,1855.98)">
                    <path d="M1772.64,83.333L1772.64,168.12" style="fill:none;stroke:rgb(91,42,0);stroke-width:23.24px;"/>
                </g>
            </g>
        </g>
    </g>
</svg>
